<?xml version="1.0" encoding="UTF-8" standalone="no"?>
<svg width="270.933mm" height="29.3687mm"
 xmlns="http://www.w3.org/2000/svg" xmlns:xlink="http://www.w3.org/1999/xlink"  version="1.2" baseProfile="tiny">
<desc>Created by EvoPdf</desc>
<defs>
</defs>
<g fill="none" stroke="black" stroke-width="1" fill-rule="evenodd" stroke-linecap="square" stroke-linejoin="bevel" >

<g fill="#000000" fill-opacity="1" stroke="#000000" stroke-opacity="1" stroke-width="1" stroke-linecap="butt" stroke-linejoin="miter" stroke-miterlimit="2" transform="matrix(1,0,0,1,0,0)"
>
</g>

<g fill="#000000" fill-opacity="1" stroke="#000000" stroke-opacity="1" stroke-width="1" stroke-linecap="butt" stroke-linejoin="miter" stroke-miterlimit="2" transform="matrix(1,0,0,1,0,0)"
>
</g>

<g fill="#000000" fill-opacity="1" stroke="#000000" stroke-opacity="1" stroke-width="1" stroke-linecap="butt" stroke-linejoin="miter" stroke-miterlimit="2" transform="matrix(1,0,0,1,0,0)"
>
</g>

<g fill="#000000" fill-opacity="1" stroke="#000000" stroke-opacity="1" stroke-width="1" stroke-linecap="butt" stroke-linejoin="miter" stroke-miterlimit="2" transform="matrix(1,0,0,1,0,0)"
>
</g>

<g fill="#000000" fill-opacity="1" stroke="#000000" stroke-opacity="1" stroke-width="1" stroke-linecap="butt" stroke-linejoin="miter" stroke-miterlimit="2" transform="matrix(1,0,0,1,8,8)"
>
</g>

<g fill="#000000" fill-opacity="1" stroke="#000000" stroke-opacity="1" stroke-width="1" stroke-linecap="square" stroke-linejoin="bevel" transform="matrix(1,0,0,1,8,8)"
>
<text fill="#000000" fill-opacity="1" stroke="none" xml:space="preserve" x="10" y="45" font-family="Arial" font-size="30" font-weight="700" font-style="normal" 
 >H</text>
</g>

<g fill="#000000" fill-opacity="1" stroke="#000000" stroke-opacity="1" stroke-width="1" stroke-linecap="butt" stroke-linejoin="miter" stroke-miterlimit="2" transform="matrix(1,0,0,1,8,8)"
>
</g>

<g fill="#000000" fill-opacity="1" stroke="#000000" stroke-opacity="1" stroke-width="1" stroke-linecap="butt" stroke-linejoin="miter" stroke-miterlimit="4" transform="matrix(1,0,0,1,8,8)"
>
</g>

<g fill="none" stroke="#000000" stroke-opacity="1" stroke-width="1" stroke-linecap="square" stroke-linejoin="bevel" transform="matrix(1,0,0,1,8,8)"
>
<path vector-effect="none" fill-rule="evenodd" d="M12.1973,45 L12.1973,23.5254 L16.5332,23.5254 L16.5332,31.9775 L25.0293,31.9775 L25.0293,23.5254 L29.3652,23.5254 L29.3652,45 L25.0293,45 L25.0293,35.6104 L16.5332,35.6104 L16.5332,45 L12.1973,45"/>
</g>

<g fill="#000000" fill-opacity="1" stroke="#000000" stroke-opacity="1" stroke-width="1" stroke-linecap="butt" stroke-linejoin="miter" stroke-miterlimit="4" transform="matrix(1,0,0,1,8,8)"
>
</g>

<g fill="#000000" fill-opacity="1" stroke="#000000" stroke-opacity="1" stroke-width="1" stroke-linecap="butt" stroke-linejoin="miter" stroke-miterlimit="2" transform="matrix(1,0,0,1,8,8)"
>
</g>

<g fill="#000000" fill-opacity="1" stroke="#000000" stroke-opacity="1" stroke-width="1" stroke-linecap="square" stroke-linejoin="bevel" transform="matrix(1,0,0,1,8,8)"
>
<text fill="#000000" fill-opacity="1" stroke="none" xml:space="preserve" x="36.7969" y="45" font-family="Arial" font-size="30" font-weight="700" font-style="normal" 
 >o</text>
</g>

<g fill="#000000" fill-opacity="1" stroke="#000000" stroke-opacity="1" stroke-width="1" stroke-linecap="butt" stroke-linejoin="miter" stroke-miterlimit="2" transform="matrix(1,0,0,1,8,8)"
>
</g>

<g fill="#000000" fill-opacity="1" stroke="#000000" stroke-opacity="1" stroke-width="1" stroke-linecap="butt" stroke-linejoin="miter" stroke-miterlimit="4" transform="matrix(1,0,0,1,8,8)"
>
</g>

<g fill="none" stroke="#000000" stroke-opacity="1" stroke-width="1" stroke-linecap="square" stroke-linejoin="bevel" transform="matrix(1,0,0,1,8,8)"
>
<path vector-effect="none" fill-rule="evenodd" d="M38.0012,37.002 C38.0012,35.6348 38.3381,34.3115 39.0119,33.0322 C39.6857,31.7529 40.6403,30.7764 41.8757,30.1025 C43.111,29.4287 44.4904,29.0918 46.0139,29.0918 C48.3674,29.0918 50.2961,29.856 51.8,31.3843 C53.3039,32.9126 54.0559,34.8438 54.0559,37.1777 C54.0559,39.5312 53.2966,41.4819 51.778,43.0298 C50.2595,44.5776 48.3479,45.3516 46.0432,45.3516 C44.6174,45.3516 43.2575,45.0293 41.9636,44.3848 C40.6696,43.7402 39.6857,42.7954 39.0119,41.5503 C38.3381,40.3052 38.0012,38.7891 38.0012,37.002 M42.2199,37.2217 C42.2199,38.7646 42.5861,39.9463 43.3186,40.7666 C44.051,41.5869 44.9543,41.9971 46.0285,41.9971 C47.1027,41.9971 48.0036,41.5869 48.7312,40.7666 C49.4587,39.9463 49.8225,38.7549 49.8225,37.1924 C49.8225,35.6689 49.4587,34.4971 48.7312,33.6768 C48.0036,32.8564 47.1027,32.4463 46.0285,32.4463 C44.9543,32.4463 44.051,32.8564 43.3186,33.6768 C42.5861,34.4971 42.2199,35.6787 42.2199,37.2217 "/>
</g>

<g fill="#000000" fill-opacity="1" stroke="#000000" stroke-opacity="1" stroke-width="1" stroke-linecap="butt" stroke-linejoin="miter" stroke-miterlimit="4" transform="matrix(1,0,0,1,8,8)"
>
</g>

<g fill="#000000" fill-opacity="1" stroke="#000000" stroke-opacity="1" stroke-width="1" stroke-linecap="butt" stroke-linejoin="miter" stroke-miterlimit="2" transform="matrix(1,0,0,1,8,8)"
>
</g>

<g fill="#000000" fill-opacity="1" stroke="#000000" stroke-opacity="1" stroke-width="1" stroke-linecap="square" stroke-linejoin="bevel" transform="matrix(1,0,0,1,8,8)"
>
<text fill="#000000" fill-opacity="1" stroke="none" xml:space="preserve" x="59.5938" y="45" font-family="Arial" font-size="30" font-weight="700" font-style="normal" 
 >m</text>
</g>

<g fill="#000000" fill-opacity="1" stroke="#000000" stroke-opacity="1" stroke-width="1" stroke-linecap="butt" stroke-linejoin="miter" stroke-miterlimit="2" transform="matrix(1,0,0,1,8,8)"
>
</g>

<g fill="#000000" fill-opacity="1" stroke="#000000" stroke-opacity="1" stroke-width="1" stroke-linecap="butt" stroke-linejoin="miter" stroke-miterlimit="4" transform="matrix(1,0,0,1,8,8)"
>
</g>

<g fill="none" stroke="#000000" stroke-opacity="1" stroke-width="1" stroke-linecap="square" stroke-linejoin="bevel" transform="matrix(1,0,0,1,8,8)"
>
<path vector-effect="none" fill-rule="evenodd" d="M61.4457,29.4434 L65.2396,29.4434 L65.2396,31.5674 C66.5971,29.917 68.2133,29.0918 70.0883,29.0918 C71.0844,29.0918 71.9486,29.2969 72.6811,29.707 C73.4135,30.1172 74.0141,30.7373 74.4828,31.5674 C75.1664,30.7373 75.9037,30.1172 76.6947,29.707 C77.4857,29.2969 78.3305,29.0918 79.2289,29.0918 C80.3715,29.0918 81.3383,29.3237 82.1293,29.7876 C82.9203,30.2515 83.5111,30.9326 83.9018,31.8311 C84.185,32.4951 84.3266,33.5693 84.3266,35.0537 L84.3266,45 L80.2104,45 L80.2104,36.1084 C80.2104,34.5654 80.0687,33.5693 79.7855,33.1201 C79.4047,32.5342 78.8187,32.2412 78.0277,32.2412 C77.4516,32.2412 76.9096,32.417 76.4018,32.7686 C75.8939,33.1201 75.5277,33.6353 75.3031,34.314 C75.0785,34.9927 74.9662,36.0645 74.9662,37.5293 L74.9662,45 L70.85,45 L70.85,36.4746 C70.85,34.9609 70.7768,33.9844 70.6303,33.5449 C70.4838,33.1055 70.2567,32.7783 69.9491,32.5635 C69.6415,32.3486 69.224,32.2412 68.6967,32.2412 C68.0619,32.2412 67.4906,32.4121 66.9828,32.7539 C66.475,33.0957 66.1112,33.5889 65.8915,34.2334 C65.6718,34.8779 65.5619,35.9473 65.5619,37.4414 L65.5619,45 L61.4457,45 L61.4457,29.4434"/>
</g>

<g fill="#000000" fill-opacity="1" stroke="#000000" stroke-opacity="1" stroke-width="1" stroke-linecap="butt" stroke-linejoin="miter" stroke-miterlimit="4" transform="matrix(1,0,0,1,8,8)"
>
</g>

<g fill="#000000" fill-opacity="1" stroke="#000000" stroke-opacity="1" stroke-width="1" stroke-linecap="butt" stroke-linejoin="miter" stroke-miterlimit="2" transform="matrix(1,0,0,1,8,8)"
>
</g>

<g fill="#000000" fill-opacity="1" stroke="#000000" stroke-opacity="1" stroke-width="1" stroke-linecap="square" stroke-linejoin="bevel" transform="matrix(1,0,0,1,8,8)"
>
<text fill="#000000" fill-opacity="1" stroke="none" xml:space="preserve" x="90.3906" y="45" font-family="Arial" font-size="30" font-weight="700" font-style="normal" 
 >e</text>
</g>

<g fill="#000000" fill-opacity="1" stroke="#000000" stroke-opacity="1" stroke-width="1" stroke-linecap="butt" stroke-linejoin="miter" stroke-miterlimit="2" transform="matrix(1,0,0,1,8,8)"
>
</g>

<g fill="#000000" fill-opacity="1" stroke="#000000" stroke-opacity="1" stroke-width="1" stroke-linecap="butt" stroke-linejoin="miter" stroke-miterlimit="4" transform="matrix(1,0,0,1,8,8)"
>
</g>

<g fill="none" stroke="#000000" stroke-opacity="1" stroke-width="1" stroke-linecap="square" stroke-linejoin="bevel" transform="matrix(1,0,0,1,8,8)"
>
<path vector-effect="none" fill-rule="evenodd" d="M101.562,40.0488 L105.664,40.7373 C105.136,42.2412 104.304,43.3862 103.166,44.1724 C102.028,44.9585 100.605,45.3516 98.8961,45.3516 C96.191,45.3516 94.1891,44.4678 92.8902,42.7002 C91.8648,41.2842 91.3521,39.4971 91.3521,37.3389 C91.3521,34.7607 92.026,32.7417 93.3736,31.2817 C94.7213,29.8218 96.4254,29.0918 98.4859,29.0918 C100.8,29.0918 102.627,29.856 103.964,31.3843 C105.302,32.9126 105.942,35.2539 105.883,38.4082 L95.5709,38.4082 C95.6002,39.6289 95.9322,40.5786 96.567,41.2573 C97.2018,41.936 97.9928,42.2754 98.94,42.2754 C99.5846,42.2754 100.127,42.0996 100.566,41.748 C101.005,41.3965 101.337,40.8301 101.562,40.0488 M101.796,35.8887 C101.767,34.6973 101.46,33.7915 100.874,33.1714 C100.288,32.5513 99.5748,32.2412 98.735,32.2412 C97.8365,32.2412 97.0943,32.5684 96.5084,33.2227 C95.9225,33.877 95.6344,34.7656 95.6441,35.8887 L101.796,35.8887"/>
</g>

<g fill="#000000" fill-opacity="1" stroke="#000000" stroke-opacity="1" stroke-width="1" stroke-linecap="butt" stroke-linejoin="miter" stroke-miterlimit="4" transform="matrix(1,0,0,1,8,8)"
>
</g>

<g fill="#000000" fill-opacity="1" stroke="#000000" stroke-opacity="1" stroke-width="1" stroke-linecap="butt" stroke-linejoin="miter" stroke-miterlimit="2" transform="matrix(1,0,0,1,8,8)"
>
</g>

<g fill="#000000" fill-opacity="1" stroke="#000000" stroke-opacity="1" stroke-width="1" stroke-linecap="butt" stroke-linejoin="miter" stroke-miterlimit="2" transform="matrix(1,0,0,1,8,8)"
>
</g>

<g fill="#000000" fill-opacity="1" stroke="#000000" stroke-opacity="1" stroke-width="1" stroke-linecap="square" stroke-linejoin="bevel" transform="matrix(1,0,0,1,8,8)"
>
<text fill="#000000" fill-opacity="1" stroke="none" xml:space="preserve" x="112.188" y="45" font-family="Arial" font-size="30" font-weight="700" font-style="normal" 
 > </text>
</g>

<g fill="#000000" fill-opacity="1" stroke="#000000" stroke-opacity="1" stroke-width="1" stroke-linecap="butt" stroke-linejoin="miter" stroke-miterlimit="2" transform="matrix(1,0,0,1,8,8)"
>
</g>

<g fill="#000000" fill-opacity="1" stroke="#000000" stroke-opacity="1" stroke-width="1" stroke-linecap="butt" stroke-linejoin="miter" stroke-miterlimit="2" transform="matrix(1,0,0,1,8,8)"
>
</g>

<g fill="#ffa500" fill-opacity="1" stroke="#000000" stroke-opacity="1" stroke-width="1" stroke-linecap="butt" stroke-linejoin="miter" stroke-miterlimit="2" transform="matrix(1,0,0,1,8,8)"
>
</g>

<g fill="#ffa500" fill-opacity="1" stroke="#ffa500" stroke-opacity="1" stroke-width="1" stroke-linecap="square" stroke-linejoin="bevel" transform="matrix(1,0,0,1,8,8)"
>
<text fill="#ffa500" fill-opacity="1" stroke="none" xml:space="preserve" x="120" y="45" font-family="Arial" font-size="30" font-weight="700" font-style="normal" 
 >T</text>
</g>

<g fill="#ffa500" fill-opacity="1" stroke="#000000" stroke-opacity="1" stroke-width="1" stroke-linecap="butt" stroke-linejoin="miter" stroke-miterlimit="2" transform="matrix(1,0,0,1,8,8)"
>
</g>

<g fill="#ffa500" fill-opacity="1" stroke="#ffa500" stroke-opacity="1" stroke-width="1" stroke-linecap="butt" stroke-linejoin="miter" stroke-miterlimit="4" transform="matrix(1,0,0,1,8,8)"
>
</g>

<g fill="none" stroke="#ffa500" stroke-opacity="1" stroke-width="1" stroke-linecap="square" stroke-linejoin="bevel" transform="matrix(1,0,0,1,8,8)"
>
<path vector-effect="none" fill-rule="evenodd" d="M127.017,45 L127.017,27.1582 L120.645,27.1582 L120.645,23.5254 L137.71,23.5254 L137.71,27.1582 L131.353,27.1582 L131.353,45 L127.017,45"/>
</g>

<g fill="#ffa500" fill-opacity="1" stroke="#ffa500" stroke-opacity="1" stroke-width="1" stroke-linecap="butt" stroke-linejoin="miter" stroke-miterlimit="4" transform="matrix(1,0,0,1,8,8)"
>
</g>

<g fill="#000000" fill-opacity="1" stroke="#000000" stroke-opacity="1" stroke-width="1" stroke-linecap="butt" stroke-linejoin="miter" stroke-miterlimit="2" transform="matrix(1,0,0,1,8,8)"
>
</g>

<g fill="#ffa500" fill-opacity="1" stroke="#000000" stroke-opacity="1" stroke-width="1" stroke-linecap="butt" stroke-linejoin="miter" stroke-miterlimit="2" transform="matrix(1,0,0,1,8,8)"
>
</g>

<g fill="#ffa500" fill-opacity="1" stroke="#ffa500" stroke-opacity="1" stroke-width="1" stroke-linecap="square" stroke-linejoin="bevel" transform="matrix(1,0,0,1,8,8)"
>
<text fill="#ffa500" fill-opacity="1" stroke="none" xml:space="preserve" x="142.797" y="45" font-family="Arial" font-size="30" font-weight="700" font-style="normal" 
 >o</text>
</g>

<g fill="#ffa500" fill-opacity="1" stroke="#000000" stroke-opacity="1" stroke-width="1" stroke-linecap="butt" stroke-linejoin="miter" stroke-miterlimit="2" transform="matrix(1,0,0,1,8,8)"
>
</g>

<g fill="#ffa500" fill-opacity="1" stroke="#ffa500" stroke-opacity="1" stroke-width="1" stroke-linecap="butt" stroke-linejoin="miter" stroke-miterlimit="4" transform="matrix(1,0,0,1,8,8)"
>
</g>

<g fill="none" stroke="#ffa500" stroke-opacity="1" stroke-width="1" stroke-linecap="square" stroke-linejoin="bevel" transform="matrix(1,0,0,1,8,8)"
>
<path vector-effect="none" fill-rule="evenodd" d="M144.001,37.002 C144.001,35.6348 144.338,34.3115 145.012,33.0322 C145.686,31.7529 146.64,30.7764 147.876,30.1025 C149.111,29.4287 150.49,29.0918 152.014,29.0918 C154.367,29.0918 156.296,29.856 157.8,31.3843 C159.304,32.9126 160.056,34.8438 160.056,37.1777 C160.056,39.5312 159.297,41.4819 157.778,43.0298 C156.259,44.5776 154.348,45.3516 152.043,45.3516 C150.617,45.3516 149.258,45.0293 147.964,44.3848 C146.67,43.7402 145.686,42.7954 145.012,41.5503 C144.338,40.3052 144.001,38.7891 144.001,37.002 M148.22,37.2217 C148.22,38.7646 148.586,39.9463 149.319,40.7666 C150.051,41.5869 150.954,41.9971 152.029,41.9971 C153.103,41.9971 154.004,41.5869 154.731,40.7666 C155.459,39.9463 155.822,38.7549 155.822,37.1924 C155.822,35.6689 155.459,34.4971 154.731,33.6768 C154.004,32.8564 153.103,32.4463 152.029,32.4463 C150.954,32.4463 150.051,32.8564 149.319,33.6768 C148.586,34.4971 148.22,35.6787 148.22,37.2217 "/>
</g>

<g fill="#ffa500" fill-opacity="1" stroke="#ffa500" stroke-opacity="1" stroke-width="1" stroke-linecap="butt" stroke-linejoin="miter" stroke-miterlimit="4" transform="matrix(1,0,0,1,8,8)"
>
</g>

<g fill="#000000" fill-opacity="1" stroke="#000000" stroke-opacity="1" stroke-width="1" stroke-linecap="butt" stroke-linejoin="miter" stroke-miterlimit="2" transform="matrix(1,0,0,1,8,8)"
>
</g>

<g fill="#ffa500" fill-opacity="1" stroke="#000000" stroke-opacity="1" stroke-width="1" stroke-linecap="butt" stroke-linejoin="miter" stroke-miterlimit="2" transform="matrix(1,0,0,1,8,8)"
>
</g>

<g fill="#ffa500" fill-opacity="1" stroke="#ffa500" stroke-opacity="1" stroke-width="1" stroke-linecap="square" stroke-linejoin="bevel" transform="matrix(1,0,0,1,8,8)"
>
<text fill="#ffa500" fill-opacity="1" stroke="none" xml:space="preserve" x="163.594" y="45" font-family="Arial" font-size="30" font-weight="700" font-style="normal" 
 >w</text>
</g>

<g fill="#ffa500" fill-opacity="1" stroke="#000000" stroke-opacity="1" stroke-width="1" stroke-linecap="butt" stroke-linejoin="miter" stroke-miterlimit="2" transform="matrix(1,0,0,1,8,8)"
>
</g>

<g fill="#ffa500" fill-opacity="1" stroke="#ffa500" stroke-opacity="1" stroke-width="1" stroke-linecap="butt" stroke-linejoin="miter" stroke-miterlimit="4" transform="matrix(1,0,0,1,8,8)"
>
</g>

<g fill="none" stroke="#ffa500" stroke-opacity="1" stroke-width="1" stroke-linecap="square" stroke-linejoin="bevel" transform="matrix(1,0,0,1,8,8)"
>
<path vector-effect="none" fill-rule="evenodd" d="M168.654,45 L163.732,29.4434 L167.731,29.4434 L170.646,39.6387 L173.327,29.4434 L177.296,29.4434 L179.889,39.6387 L182.863,29.4434 L186.92,29.4434 L181.925,45 L177.97,45 L175.289,34.9951 L172.653,45 L168.654,45"/>
</g>

<g fill="#ffa500" fill-opacity="1" stroke="#ffa500" stroke-opacity="1" stroke-width="1" stroke-linecap="butt" stroke-linejoin="miter" stroke-miterlimit="4" transform="matrix(1,0,0,1,8,8)"
>
</g>

<g fill="#000000" fill-opacity="1" stroke="#000000" stroke-opacity="1" stroke-width="1" stroke-linecap="butt" stroke-linejoin="miter" stroke-miterlimit="2" transform="matrix(1,0,0,1,8,8)"
>
</g>

<g fill="#ffa500" fill-opacity="1" stroke="#000000" stroke-opacity="1" stroke-width="1" stroke-linecap="butt" stroke-linejoin="miter" stroke-miterlimit="2" transform="matrix(1,0,0,1,8,8)"
>
</g>

<g fill="#ffa500" fill-opacity="1" stroke="#ffa500" stroke-opacity="1" stroke-width="1" stroke-linecap="square" stroke-linejoin="bevel" transform="matrix(1,0,0,1,8,8)"
>
<text fill="#ffa500" fill-opacity="1" stroke="none" xml:space="preserve" x="193.391" y="45" font-family="Arial" font-size="30" font-weight="700" font-style="normal" 
 >n</text>
</g>

<g fill="#ffa500" fill-opacity="1" stroke="#000000" stroke-opacity="1" stroke-width="1" stroke-linecap="butt" stroke-linejoin="miter" stroke-miterlimit="2" transform="matrix(1,0,0,1,8,8)"
>
</g>

<g fill="#ffa500" fill-opacity="1" stroke="#ffa500" stroke-opacity="1" stroke-width="1" stroke-linecap="butt" stroke-linejoin="miter" stroke-miterlimit="4" transform="matrix(1,0,0,1,8,8)"
>
</g>

<g fill="none" stroke="#ffa500" stroke-opacity="1" stroke-width="1" stroke-linecap="square" stroke-linejoin="bevel" transform="matrix(1,0,0,1,8,8)"
>
<path vector-effect="none" fill-rule="evenodd" d="M209.704,45 L205.588,45 L205.588,37.0605 C205.588,35.3809 205.5,34.2944 205.324,33.8013 C205.148,33.3081 204.862,32.9248 204.467,32.6514 C204.071,32.3779 203.595,32.2412 203.039,32.2412 C202.326,32.2412 201.686,32.4365 201.12,32.8271 C200.553,33.2178 200.165,33.7354 199.955,34.3799 C199.745,35.0244 199.64,36.2158 199.64,37.9541 L199.64,45 L195.524,45 L195.524,29.4434 L199.347,29.4434 L199.347,31.7285 C200.705,29.9707 202.414,29.0918 204.474,29.0918 C205.382,29.0918 206.213,29.2554 206.964,29.5825 C207.716,29.9097 208.285,30.3271 208.671,30.835 C209.057,31.3428 209.325,31.9189 209.477,32.5635 C209.628,33.208 209.704,34.1309 209.704,35.332 L209.704,45"/>
</g>

<g fill="#ffa500" fill-opacity="1" stroke="#ffa500" stroke-opacity="1" stroke-width="1" stroke-linecap="butt" stroke-linejoin="miter" stroke-miterlimit="4" transform="matrix(1,0,0,1,8,8)"
>
</g>

<g fill="#000000" fill-opacity="1" stroke="#000000" stroke-opacity="1" stroke-width="1" stroke-linecap="butt" stroke-linejoin="miter" stroke-miterlimit="2" transform="matrix(1,0,0,1,8,8)"
>
</g>

<g fill="#000000" fill-opacity="1" stroke="#000000" stroke-opacity="1" stroke-width="1" stroke-linecap="butt" stroke-linejoin="miter" stroke-miterlimit="2" transform="matrix(1,0,0,1,8,8)"
>
</g>

<g fill="#000000" fill-opacity="1" stroke="#000000" stroke-opacity="1" stroke-width="1" stroke-linecap="butt" stroke-linejoin="miter" stroke-miterlimit="2" transform="matrix(1,0,0,1,8,8)"
>
</g>

<g fill="#000000" fill-opacity="1" stroke="#000000" stroke-opacity="1" stroke-width="1" stroke-linecap="butt" stroke-linejoin="miter" stroke-miterlimit="2" transform="matrix(1,0,0,1,8,8)"
>
</g>

<g fill="#000000" fill-opacity="1" stroke="#000000" stroke-opacity="1" stroke-width="1" stroke-linecap="butt" stroke-linejoin="miter" stroke-miterlimit="2" transform="matrix(1,0,0,1,8,8)"
>
</g>

<g fill="#000000" fill-opacity="1" stroke="#000000" stroke-opacity="1" stroke-width="1" stroke-linecap="butt" stroke-linejoin="miter" stroke-miterlimit="2" transform="matrix(1,0,0,1,0,0)"
>
</g>

<g fill="#000000" fill-opacity="1" stroke="#000000" stroke-opacity="1" stroke-width="1" stroke-linecap="butt" stroke-linejoin="miter" stroke-miterlimit="2" transform="matrix(1,0,0,1,0,0)"
>
</g>

<g fill="#000000" fill-opacity="1" stroke="#000000" stroke-opacity="1" stroke-width="1" stroke-linecap="butt" stroke-linejoin="miter" stroke-miterlimit="2" transform="matrix(1,0,0,1,0,0)"
>
</g>

<g fill="#000000" fill-opacity="1" stroke="#000000" stroke-opacity="1" stroke-width="1" stroke-linecap="butt" stroke-linejoin="miter" stroke-miterlimit="2" transform="matrix(1,0,0,1,0,0)"
>
</g>

<g fill="#000000" fill-opacity="1" stroke="#000000" stroke-opacity="1" stroke-width="1" stroke-linecap="butt" stroke-linejoin="miter" stroke-miterlimit="2" transform="matrix(1,0,0,1,8,8)"
>
</g>

<g fill="#000000" fill-opacity="1" stroke="#000000" stroke-opacity="1" stroke-width="1" stroke-linecap="butt" stroke-linejoin="miter" stroke-miterlimit="2" transform="matrix(1,0,0,1,0,0)"
>
</g>

<g fill="#000000" fill-opacity="1" stroke="#000000" stroke-opacity="1" stroke-width="1" stroke-linecap="butt" stroke-linejoin="miter" stroke-miterlimit="2" transform="matrix(1,0,0,1,0,0)"
>
</g>

<g fill="#000000" fill-opacity="1" stroke="#000000" stroke-opacity="1" stroke-width="1" stroke-linecap="butt" stroke-linejoin="miter" stroke-miterlimit="2" transform="matrix(1,0,0,1,0,0)"
>
</g>

<g fill="#000000" fill-opacity="1" stroke="#000000" stroke-opacity="1" stroke-width="1" stroke-linecap="butt" stroke-linejoin="miter" stroke-miterlimit="2" transform="matrix(1,0,0,1,0,0)"
>
</g>

<g fill="#000000" fill-opacity="1" stroke="#000000" stroke-opacity="1" stroke-width="1" stroke-linecap="butt" stroke-linejoin="miter" stroke-miterlimit="2" transform="matrix(1,0,0,1,0,0)"
>
</g>

<g fill="#000000" fill-opacity="1" stroke="#000000" stroke-opacity="1" stroke-width="1" stroke-linecap="butt" stroke-linejoin="miter" stroke-miterlimit="2" transform="matrix(1,0,0,1,0,0)"
>
</g>
</g>
</svg>
