<?xml version="1.0" standalone="no"?>
<!DOCTYPE svg PUBLIC "-//W3C//DTD SVG 20010904//EN"
 "http://www.w3.org/TR/2001/REC-SVG-20010904/DTD/svg10.dtd">
<svg version="1.0" xmlns="http://www.w3.org/2000/svg"
 width="1024.000000pt" height="111.000000pt" viewBox="0 0 1024.000000 111.000000"
 preserveAspectRatio="xMidYMid meet">

<g transform="translate(0.000000,111.000000) scale(0.100000,-0.100000)"
fill="#000000" stroke="none">
<path d="M202 693 c3 -110 4 -118 23 -118 17 0 20 8 23 48 l3 47 39 0 39 0 3
-47 c3 -40 6 -48 23 -48 19 0 20 8 23 118 l3 117 -26 0 c-23 0 -25 -4 -25 -45
l0 -45 -40 0 -40 0 0 45 c0 41 -2 45 -25 45 l-26 0 3 -117z"/>
<path d="M515 725 c-19 -18 -25 -35 -25 -65 0 -77 74 -116 134 -69 36 28 38
105 3 137 -32 30 -81 29 -112 -3z m85 -65 c0 -36 -24 -57 -45 -40 -21 17 -19
67 2 79 24 13 43 -4 43 -39z"/>
<path d="M754 735 c-3 -6 -4 -45 -2 -86 3 -71 4 -74 28 -74 23 0 25 4 27 50 1
28 2 56 2 63 1 8 9 12 19 10 13 -2 18 -16 22 -63 4 -52 8 -60 25 -60 17 0 21
8 25 60 4 46 9 61 22 63 14 3 17 -7 20 -60 3 -55 5 -63 23 -63 18 0 20 8 23
71 2 56 -1 75 -13 88 -19 19 -56 21 -73 4 -8 -8 -15 -8 -24 -1 -18 15 -118 14
-124 -2z"/>
<path d="M1120 730 c-55 -55 -24 -160 49 -160 28 0 81 33 81 51 0 13 -44 11
-57 -2 -13 -13 -43 -5 -43 11 0 5 22 10 50 10 49 0 50 1 50 30 0 66 -85 105
-130 60z m74 -35 c4 -11 -1 -15 -19 -15 -24 0 -32 10 -18 23 11 12 31 8 37 -8z"/>
</g>
</svg>
